<?xml version="1.0" encoding="utf-8"?>
<!-- Generator: Adobe Illustrator 23.0.1, SVG Export Plug-In . SVG Version: 6.00 Build 0)  -->
<svg version="1.1" id="Layer_1" xmlns:sketch="http://www.bohemiancoding.com/sketch/ns"
	 xmlns="http://www.w3.org/2000/svg" xmlns:xlink="http://www.w3.org/1999/xlink" x="0px" y="0px" viewBox="0 0 90 90"
	 style="enable-background:new 0 0 90 90;" xml:space="preserve">
<style type="text/css">
	.st0{fill-rule:evenodd;clip-rule:evenodd;fill:#FFBF47;}
	.st1{fill-rule:evenodd;clip-rule:evenodd;fill:#FFFFFF;}
</style>
<title>Oval 6 + Imported Layers</title>
<desc>Created with Sketch.</desc>
<g id="Main-flow" sketch:type="MSPage">
	<g id="New-claim---Long-form" transform="translate(-406.000000, -4133.000000)" sketch:type="MSArtboardGroup">
		<g transform="translate(406.000000, 4133.000000)" sketch:type="MSLayerGroup">
			<circle id="Oval-6" sketch:type="MSShapeGroup" class="st0" cx="45" cy="45" r="45">
			</circle>
			<path id="Imported-Layers" sketch:type="MSShapeGroup" class="st1" d="M47.2,65.9V30.4l10.9,11c1.2,1.2,3,1.2,4.2,0
				c1.2-1.2,1.2-3.1,0-4.2l-18-18.3l-18,18.3c-0.6,0.6-0.9,1.4-0.9,2.1c0,0.8,0.3,1.5,0.9,2.1c1.2,1.2,3,1.2,4.2,0l10.9-11v35.5
				c0,1.7,1.3,3,3,3C45.9,68.9,47.2,67.5,47.2,65.9"/>
		</g>
	</g>
</g>
</svg>
